<?xml version="1.0" encoding="utf-8"?>
<!-- Generator: Adobe Illustrator 25.4.1, SVG Export Plug-In . SVG Version: 6.00 Build 0)  -->
<svg version="1.2" baseProfile="tiny" id="Graphic" xmlns="http://www.w3.org/2000/svg" xmlns:xlink="http://www.w3.org/1999/xlink"
	 x="0px" y="0px" viewBox="0 0 1400.5 413.1" overflow="visible" xml:space="preserve">
<g>
	<path fill="#006996" d="M339.7,116.3V174l-50,28.9v-57.7L339.7,116.3z M139.7,58.5v57.7l50-28.9L139.7,58.5z M139.7,231.7l50-28.9
		l0-57.7l-50,28.9V231.7z"/>
	<path fill="#001973" d="M39.7,116.3l50-28.9l50,28.9l-50,28.9L39.7,116.3z M89.7,318.3l50-28.9l-50-28.9V318.3z M189.7,260.6
		l50-28.9l-50-28.9l-50,28.9L189.7,260.6z"/>
	<path fill="#004B96" d="M239.7,231.7l-50-28.9v-57.7l50,28.9V231.7z M189.7,318.3l-50-28.9v57.7l50,28.9V318.3z M339.7,231.7
		l-50-28.9v57.7L339.7,231.7z"/>
	<polygon fill="#6EC8FF" points="189.7,29.7 139.7,58.5 189.7,87.4 89.7,145.1 89.7,202.9 139.7,231.7 139.7,174 239.7,116.3 
		289.7,145.1 339.7,116.3 	"/>
	<polygon fill="#0055C8" points="189.7,260.6 89.7,202.9 89.7,145.1 39.7,116.3 39.7,289.5 89.7,318.3 89.7,260.6 189.7,318.3 
		239.7,289.5 239.7,231.7 	"/>
	<polygon fill="#0082FF" points="289.7,260.6 289.7,145.1 239.7,116.3 189.7,145.1 239.7,174 239.7,289.5 189.7,318.3 189.7,376.1 
		339.7,289.5 339.7,231.7 	"/>
</g>
<g>
	<path fill="#1E1E1E" d="M480.8,136.1v15.3h-30.5v99.3h-18.8v-99.3h-30.7v-15.3H480.8z"/>
	<path fill="#1E1E1E" d="M515.9,246.4c-6.9-3.9-12.4-9.4-16.3-16.5s-5.9-15.3-5.9-24.7c0-9.2,2-17.4,6.1-24.6
		c4.1-7.1,9.6-12.6,16.7-16.5c7-3.8,14.9-5.8,23.6-5.8c8.7,0,16.6,1.9,23.6,5.8c7,3.9,12.6,9.4,16.7,16.5c4.1,7.2,6.1,15.3,6.1,24.6
		c0,9.2-2.1,17.4-6.3,24.6c-4.2,7.2-9.9,12.7-17.1,16.6c-7.2,3.9-15.2,5.9-23.8,5.9C530.6,252.2,522.8,250.3,515.9,246.4z
		 M552.8,232.4c4.2-2.3,7.7-5.8,10.3-10.4c2.6-4.6,4-10.2,4-16.8c0-6.6-1.3-12.2-3.8-16.7c-2.5-4.6-5.9-8-10.1-10.3
		c-4.2-2.3-8.7-3.5-13.5-3.5c-4.8,0-9.3,1.2-13.4,3.5s-7.4,5.7-9.8,10.3c-2.4,4.6-3.6,10.1-3.6,16.7c0,9.8,2.5,17.4,7.5,22.7
		c5,5.3,11.3,8,18.9,8C544,235.9,548.6,234.7,552.8,232.4z"/>
	<path fill="#1E1E1E" d="M687.4,159.8v90.9h-18.8V240c-3,3.7-6.8,6.7-11.6,8.8c-4.8,2.1-9.9,3.2-15.3,3.2c-7.2,0-13.6-1.5-19.2-4.5
		c-5.7-3-10.1-7.4-13.4-13.2c-3.2-5.8-4.9-12.9-4.9-21.1v-53.5h18.6v50.7c0,8.1,2,14.4,6.1,18.7c4.1,4.3,9.6,6.5,16.7,6.5
		c7,0,12.6-2.2,16.7-6.5c4.1-4.3,6.2-10.6,6.2-18.7v-50.7H687.4z"/>
	<path fill="#1E1E1E" d="M741.9,162.2c4.6-2.6,10-3.9,16.3-3.9v19.5h-4.8c-7.4,0-13,1.9-16.7,5.6c-3.8,3.7-5.7,10.2-5.7,19.5v47.8
		h-18.8v-90.9h18.8V173C733.7,168.4,737.3,164.8,741.9,162.2z"/>
	<path fill="#1E1E1E" d="M852.5,201.6c4.3,5.4,6.4,11.5,6.4,18.3c0,5.8-1.5,11.1-4.5,15.8c-3,4.7-7.4,8.4-13.1,11.1
		c-5.7,2.7-12.4,4-20,4h-45.9V136.1h43.7c7.8,0,14.5,1.3,20.1,4c5.6,2.6,9.8,6.2,12.7,10.6c2.9,4.5,4.3,9.4,4.3,14.9
		c0,6.6-1.8,12.1-5.3,16.5c-3.5,4.4-8.2,7.6-14.2,9.7C843,192.9,848.2,196.2,852.5,201.6z M794.3,184.2h23.3c6.2,0,11-1.4,14.4-4.2
		c3.5-2.8,5.2-6.8,5.2-12.1c0-5.2-1.7-9.2-5.2-12.1c-3.5-2.9-8.3-4.4-14.4-4.4h-23.3V184.2z M834.7,230.8c3.6-3.1,5.4-7.4,5.4-12.9
		c0-5.6-1.9-10.1-5.8-13.4c-3.9-3.3-9-4.9-15.3-4.9h-24.7v35.8h25.4C826.1,235.4,831.1,233.8,834.7,230.8z"/>
	<path fill="#1E1E1E" d="M961.7,159.8v90.9h-18.8V240c-3,3.7-6.8,6.7-11.6,8.8c-4.8,2.1-9.9,3.2-15.3,3.2c-7.2,0-13.6-1.5-19.2-4.5
		c-5.7-3-10.1-7.4-13.4-13.2c-3.2-5.8-4.9-12.9-4.9-21.1v-53.5h18.6v50.7c0,8.1,2,14.4,6.1,18.7c4.1,4.3,9.6,6.5,16.7,6.5
		c7,0,12.6-2.2,16.7-6.5c4.1-4.3,6.2-10.6,6.2-18.7v-50.7H961.7z"/>
	<path fill="#1E1E1E" d="M987.5,144.3c-2.3-2.3-3.5-5.2-3.5-8.6c0-3.4,1.2-6.3,3.5-8.6c2.3-2.3,5.2-3.5,8.6-3.5
		c3.3,0,6.1,1.2,8.4,3.5c2.3,2.3,3.5,5.2,3.5,8.6c0,3.4-1.2,6.3-3.5,8.6c-2.3,2.3-5.1,3.5-8.4,3.5
		C992.6,147.8,989.8,146.6,987.5,144.3z M1005.3,159.8v90.9h-18.8v-90.9H1005.3z"/>
	<path fill="#1E1E1E" d="M1048.9,128.6v122.1H1030V128.6H1048.9z"/>
	<path fill="#1E1E1E" d="M1073,180.6c3.8-7,9-12.5,15.5-16.4c6.5-3.9,13.8-5.9,21.9-5.9c5.9,0,11.8,1.3,17.6,3.9
		c5.8,2.6,10.4,6,13.8,10.3v-43.9h19v122.1h-19V237c-3.1,4.4-7.3,8-12.8,10.9s-11.7,4.3-18.7,4.3c-7.9,0-15.2-2-21.7-6
		c-6.5-4-11.7-9.6-15.5-16.8c-3.8-7.2-5.7-15.4-5.7-24.5C1067.3,195.7,1069.2,187.6,1073,180.6z M1137.9,188.9
		c-2.6-4.6-6-8.1-10.1-10.6c-4.2-2.4-8.7-3.6-13.5-3.6c-4.8,0-9.4,1.2-13.5,3.5c-4.2,2.4-7.6,5.8-10.1,10.4
		c-2.6,4.6-3.9,10-3.9,16.3c0,6.3,1.3,11.8,3.9,16.5c2.6,4.7,6,8.3,10.2,10.8c4.2,2.5,8.7,3.7,13.4,3.7c4.8,0,9.3-1.2,13.5-3.6
		c4.2-2.4,7.6-6,10.1-10.6c2.6-4.7,3.9-10.1,3.9-16.4C1141.7,198.9,1140.5,193.5,1137.9,188.9z"/>
	<path fill="#1E1E1E" d="M1268.1,212.3h-69.5c0.5,7.3,3.2,13.1,8.1,17.5c4.8,4.4,10.8,6.6,17.8,6.6c10.1,0,17.3-4.2,21.4-12.7h20.3
		c-2.8,8.4-7.7,15.2-14.9,20.5c-7.2,5.3-16.1,8-26.8,8c-8.7,0-16.5-2-23.3-5.9c-6.9-3.9-12.3-9.4-16.2-16.5
		c-3.9-7.1-5.9-15.3-5.9-24.7c0-9.3,1.9-17.6,5.7-24.7s9.1-12.6,16-16.4c6.9-3.8,14.8-5.8,23.7-5.8c8.6,0,16.2,1.9,22.9,5.6
		c6.7,3.7,11.9,9,15.7,15.8c3.7,6.8,5.6,14.5,5.6,23.3C1268.8,206.5,1268.6,209.5,1268.1,212.3z M1249.2,197.1
		c-0.1-6.9-2.6-12.5-7.4-16.7c-4.8-4.2-10.8-6.3-18-6.3c-6.5,0-12,2.1-16.7,6.2s-7.4,9.7-8.2,16.7H1249.2z"/>
	<path fill="#1E1E1E" d="M1317.1,162.2c4.6-2.6,10-3.9,16.3-3.9v19.5h-4.8c-7.4,0-13,1.9-16.7,5.6c-3.8,3.7-5.7,10.2-5.7,19.5v47.8
		h-18.8v-90.9h18.8V173C1308.8,168.4,1312.5,164.8,1317.1,162.2z"/>
</g>
<rect x="772.3" y="-471.9" fill="none" width="0" height="4.7"/>
<rect x="2144.7" y="996.2" fill="none" width="3.6" height="3.6"/>
</svg>
